<svg xmlns="http://www.w3.org/2000/svg" width="230.211" height="89.616" viewBox="0 0 230.211 89.616">
  <g id="Group_12" data-name="Group 12" transform="translate(-1632.693 -32.426)">
    <g id="Group_1" data-name="Group 1" transform="translate(1659.865 33.181)">
      <path id="pen-fancy-solid" d="M7.99,27.178a3.161,3.161,0,0,0-2.037,1.943L0,46.08l.471.449,9.351-8.919a2.826,2.826,0,0,1-.157-.747,3.157,3.157,0,0,1,3.221-3.073,3.071,3.071,0,1,1-.01,6.135,3.219,3.219,0,0,1-.784-.149L2.741,48.694l.47.448,17.781-5.678a3.158,3.158,0,0,0,2.037-1.943l3.337-8.064-9.922-9.462ZM37.185,2.724,18.749,21.876l9.818,9.363L48.647,13.655C57.194,6.445,44.684-5.365,37.185,2.724Z" transform="matrix(0.999, 0.035, -0.035, 0.999, 123.781, 19.345)"/>
      <text id="منصور" transform="translate(3 56)" font-size="59" font-family="Lateef"><tspan x="0" y="0">منصور</tspan></text>
    </g>
    <g id="Rectangle_2" data-name="Rectangle 2" transform="translate(1632.693 32.426)" fill="none" stroke="#000" stroke-width="7">
      <rect width="230.211" height="89.616" stroke="none"/>
      <rect x="3.5" y="3.5" width="223.211" height="82.616" fill="none"/>
    </g>
  </g>
</svg>
